<!DOCTYPE svg PUBLIC "-//W3C//DTD SVG 1.1//EN" "http://www.w3.org/Graphics/SVG/1.1/DTD/svg11.dtd">
<!-- Uploaded to: SVG Repo, www.svgrepo.com, Transformed by: SVG Repo Mixer Tools -->
<svg fill="#000000" height="800px" width="800px" version="1.1" id="Layer_1" xmlns="http://www.w3.org/2000/svg" xmlns:xlink="http://www.w3.org/1999/xlink" viewBox="0 0 491.52 491.52" xml:space="preserve" transform="rotate(270)">
<g id="SVGRepo_bgCarrier" stroke-width="0"/>
<g id="SVGRepo_tracerCarrier" stroke-linecap="round" stroke-linejoin="round"/>
<g id="SVGRepo_iconCarrier"> <g> <g> <polygon points="450.56,348.16 450.56,225.28 266.24,225.28 266.24,143.36 307.2,143.36 307.2,20.48 184.32,20.48 184.32,143.36 225.28,143.36 225.28,225.28 40.96,225.28 40.96,348.16 0,348.16 0,471.04 122.88,471.04 122.88,348.16 81.92,348.16 81.92,266.24 225.28,266.24 225.28,348.16 184.32,348.16 184.32,471.04 307.2,471.04 307.2,348.16 266.24,348.16 266.24,266.24 409.6,266.24 409.6,348.16 368.64,348.16 368.64,471.04 491.52,471.04 491.52,348.16 "/> </g> </g> </g>
</svg>